<svg width="13" height="13" viewBox="0 0 13 13" fill="none" xmlns="http://www.w3.org/2000/svg">
<path d="M12.3499 5.84998H7.15002V0.649958C7.15002 0.291238 6.85878 0 6.49994 0C6.14122 0 5.84998 0.291238 5.84998 0.649958V5.84998H0.649958C0.291238 5.84998 0 6.14122 0 6.49994C0 6.85878 0.291238 7.15002 0.649958 7.15002H5.84998V12.3499C5.84998 12.7088 6.14122 13 6.49994 13C6.85878 13 7.15002 12.7088 7.15002 12.3499V7.15002H12.3499C12.7088 7.15002 13 6.85878 13 6.49994C13 6.14122 12.7088 5.84998 12.3499 5.84998Z" fill="white"/>
</svg>
