<svg width="13" height="14" viewBox="0 0 13 14" fill="none" xmlns="http://www.w3.org/2000/svg">
<path d="M3.50001 0C2.12367 0 1.00001 1.12363 1.00001 2.5V3H0.500005C0.223862 3 0 3.22386 0 3.50001C0 3.77615 0.223862 4.00001 0.500005 4.00001H1.00001V6.48729H0.500005C0.223862 6.48729 0 6.71116 0 6.9873C0 7.26344 0.223862 7.4873 0.500005 7.4873H1.00001V9.99999H0.500005C0.223862 9.99999 0 10.2239 0 10.5C0 10.7761 0.223862 11 0.500005 11H1.00001V11.5C1.00001 12.8763 2.12364 14 3.50001 14H10.5C11.8763 14 13 12.8764 13 11.5V2.5C12.9999 1.12363 11.8763 0 10.5 0H3.50001ZM3.50001 0.999982H10.5C11.3396 0.999982 12 1.66033 12 2.49997V11.4999C12 12.3396 11.3396 12.9999 10.5 12.9999H3.50001C2.66037 12.9999 2.00002 12.3396 2.00002 11.4999V10.9999H2.50002C2.77617 10.9999 3.00003 10.7761 3.00003 10.4999C3.00003 10.2238 2.77617 9.99991 2.50002 9.99991H2.00002V7.48722H2.50002C2.77617 7.48722 3.00003 7.26336 3.00003 6.98722C3.00003 6.71107 2.77617 6.48721 2.50002 6.48721H2.00002V3.99993H2.50002C2.77617 3.99993 3.00003 3.77607 3.00003 3.49992C3.00003 3.22378 2.77617 2.99992 2.50002 2.99992H2.00002V2.5C2.00002 1.66036 2.66037 0.999982 3.50001 0.999982Z" fill="black"/>
<path d="M7.49999 2.5C6.40135 2.5 5.5 3.40135 5.5 4.49999C5.5 5.59863 6.40135 6.49998 7.49999 6.49998C8.59863 6.49998 9.49998 5.59863 9.49998 4.49999C9.49998 3.40135 8.59863 2.5 7.49999 2.5ZM7.49999 3.49998C8.05818 3.49998 8.49997 3.94177 8.49997 4.49996C8.49997 5.05816 8.05818 5.49995 7.49999 5.49995C6.9418 5.49995 6.50001 5.05818 6.50001 4.49996C6.50001 3.94175 6.9418 3.49998 7.49999 3.49998Z" fill="black"/>
<path d="M7.49998 7C5.84664 7 4.5 8.34664 4.5 9.99997V10.5C4.5 10.7761 4.72386 11 5.00001 11C5.27615 11 5.50001 10.7761 5.50001 10.5V9.99997C5.50001 8.88334 6.38334 7.99998 7.5 7.99998C8.61666 7.99998 9.49999 8.88332 9.49999 9.99997V10.5C9.49999 10.7761 9.72386 11 10 11C10.2761 11 10.5 10.7761 10.5 10.5V9.99997C10.5 8.34664 9.15333 7 7.49998 7Z" fill="black"/>
</svg>
