<svg width="16" height="16" viewBox="0 0 16 16" fill="none" xmlns="http://www.w3.org/2000/svg">
<path fill-rule="evenodd" clip-rule="evenodd" d="M6.20257 1.58533e-05H8.97705C9.15461 -9.90183e-05 9.30927 -0.00019739 9.45532 0.0231297C10.0324 0.115281 10.5318 0.475198 10.8017 0.993507C10.87 1.1247 10.9188 1.27147 10.9748 1.43995L11.0665 1.71474C11.082 1.76125 11.0864 1.77442 11.0901 1.78479C11.2339 2.18202 11.6064 2.45054 12.0286 2.46124C12.0398 2.46152 12.0533 2.46157 12.1026 2.46157H14.5642C14.904 2.46157 15.1795 2.73709 15.1795 3.07695C15.1795 3.41681 14.904 3.69233 14.5642 3.69233H0.615383C0.275519 3.69233 0 3.41681 0 3.07695C0 2.73709 0.275519 2.46157 0.615383 2.46157H3.07698C3.12625 2.46157 3.13985 2.46152 3.15095 2.46124C3.57323 2.45054 3.94576 2.18203 4.08944 1.78481C4.09323 1.77437 4.09757 1.76148 4.11315 1.71474L4.20473 1.43997C4.26076 1.2715 4.3096 1.1247 4.37791 0.993507C4.64781 0.475198 5.14717 0.115281 5.72424 0.0231297C5.87031 -0.00019739 6.02501 -9.90183e-05 6.20257 1.58533e-05ZM5.13488 2.46157C5.17715 2.37868 5.2146 2.29254 5.24682 2.20347C5.2566 2.17642 5.2662 2.14762 5.27853 2.11063L5.36042 1.86496C5.43522 1.64055 5.45245 1.59477 5.46954 1.56196C5.5595 1.38919 5.72596 1.26922 5.91831 1.2385C5.95486 1.23266 6.00368 1.2308 6.24023 1.2308H8.93931C9.17586 1.2308 9.22476 1.23266 9.26127 1.2385C9.4536 1.26922 9.62008 1.38919 9.71009 1.56196C9.72716 1.59477 9.74439 1.64054 9.81914 1.86496L9.90103 2.11049L9.93278 2.20348C9.96503 2.29256 10.0024 2.37868 10.0447 2.46157H5.13488Z" fill="#D50037"/>
<path d="M2.59662 5.08729C2.57401 4.74817 2.28078 4.4916 1.94166 4.5142C1.60255 4.53681 1.34597 4.83004 1.36857 5.16916L1.74884 10.8731C1.81899 11.9257 1.87566 12.7758 2.00856 13.443C2.14673 14.1365 2.38174 14.7159 2.86715 15.17C3.35256 15.6241 3.94624 15.8201 4.64749 15.9118C5.32197 16 6.17397 16 7.22882 16H7.94997C9.00482 16 9.85684 16 10.5314 15.9118C11.2326 15.8201 11.8263 15.6241 12.3117 15.17C12.7971 14.7159 13.0321 14.1365 13.1703 13.443C13.3032 12.7758 13.3598 11.9257 13.43 10.8731L13.8103 5.16916C13.8329 4.83004 13.5763 4.53681 13.2372 4.5142C12.8981 4.4916 12.6048 4.74817 12.5822 5.08729L12.2048 10.7481C12.1311 11.854 12.0786 12.6235 11.9633 13.2025C11.8513 13.7641 11.6952 14.0614 11.4709 14.2713C11.2465 14.4811 10.9395 14.6172 10.3717 14.6914C9.78635 14.768 9.01507 14.7692 7.90673 14.7692H7.27214C6.1638 14.7692 5.39248 14.768 4.80712 14.6914C4.23933 14.6172 3.93233 14.4811 3.70799 14.2713C3.48365 14.0614 3.32748 13.7641 3.2156 13.2025C3.10027 12.6235 3.04773 11.854 2.974 10.7481L2.59662 5.08729Z" fill="#D50037"/>
<path d="M5.47802 6.56715C5.81621 6.53335 6.11781 6.78008 6.15161 7.11829L6.56187 11.2208C6.59567 11.559 6.34895 11.8606 6.01073 11.8944C5.67257 11.9282 5.371 11.6815 5.33718 11.3433L4.92693 7.24071C4.89311 6.90258 5.13985 6.60096 5.47802 6.56715Z" fill="#D50037"/>
<path d="M9.70215 6.56715C10.0404 6.60096 10.2871 6.90258 10.2533 7.24071L9.84303 11.3433C9.80922 11.6815 9.5076 11.9282 9.16947 11.8944C8.83125 11.8606 8.58453 11.559 8.61833 11.2208L9.02859 7.11829C9.06239 6.78008 9.36401 6.53335 9.70215 6.56715Z" fill="#D50037"/>
</svg>
