<svg width="16" height="16" viewBox="0 0 16 16" fill="none" xmlns="http://www.w3.org/2000/svg">
<path d="M12.9316 0C13.76 9.93461e-05 14.5334 0.317243 15.1084 0.892578C15.6837 1.46767 16.001 2.24063 16.001 3.06934C16.001 3.89476 15.6853 4.66392 15.1143 5.23828C15.1122 5.24043 15.1115 5.24397 15.1094 5.24609L5.48633 14.8682C5.47106 14.8834 5.45292 14.8949 5.43652 14.9082C5.42344 14.9189 5.41147 14.9308 5.39746 14.9404C5.3749 14.9559 5.35113 14.9684 5.32715 14.9805C5.31574 14.9862 5.30482 14.993 5.29297 14.998C5.26793 15.0088 5.24181 15.0152 5.21582 15.0225C5.20363 15.0259 5.19223 15.0325 5.17969 15.0352L0.745117 15.9863C0.742347 15.9869 0.739098 15.9858 0.736328 15.9863C0.697141 15.9942 0.657073 16 0.616211 16L0.615234 15.999V16C0.574377 16 0.534289 15.9952 0.495117 15.9873C0.492378 15.9868 0.489068 15.9869 0.486328 15.9863C0.477557 15.9844 0.469538 15.9798 0.460938 15.9775C0.435647 15.9709 0.410807 15.9638 0.386719 15.9541C0.371574 15.948 0.357221 15.9408 0.342773 15.9336C0.323882 15.9242 0.305898 15.9136 0.288086 15.9023C0.274483 15.8937 0.260844 15.8856 0.248047 15.876C0.230981 15.8632 0.214914 15.8494 0.199219 15.835C0.186832 15.8235 0.174453 15.8122 0.163086 15.7998C0.147571 15.7829 0.133742 15.7647 0.120117 15.7461C0.112169 15.7352 0.102922 15.7253 0.0957031 15.7139C0.0762458 15.6832 0.0588902 15.6507 0.0449219 15.6162C0.0391411 15.602 0.0359707 15.5869 0.03125 15.5723C0.0250768 15.553 0.0180208 15.5338 0.0136719 15.5137C0.0132103 15.5115 0.0131332 15.509 0.0126953 15.5068C0.00780088 15.4828 0.00588861 15.4583 0.00390625 15.4336C0.00270317 15.4188 0.000139243 15.4043 0 15.3896V15.3789C0.00014717 15.364 0.00264554 15.3491 0.00390625 15.334C0.00593147 15.3093 0.00776563 15.2847 0.0126953 15.2607C0.0130827 15.2589 0.0132663 15.2568 0.0136719 15.2549L0.964844 10.8203C0.966428 10.813 0.969845 10.8061 0.97168 10.7988C0.997982 10.6949 1.04959 10.596 1.13086 10.5146L10.7539 0.892578C11.329 0.317153 12.1028 0 12.9316 0ZM2.12988 11.2568L1.41699 14.582L4.74414 13.8682L12.0615 6.55176L9.44727 3.93848L2.12988 11.2568ZM12.9316 1.23145C12.4323 1.23145 11.9677 1.4207 11.625 1.76367C11.6219 1.76678 11.6174 1.76846 11.6143 1.77148L10.3184 3.06738L12.9316 5.68066L14.2373 4.375C14.58 4.03235 14.7685 3.56868 14.7686 3.06934C14.7686 2.56999 14.5799 2.10633 14.2373 1.76367C13.8944 1.42078 13.4309 1.23154 12.9316 1.23145Z" fill="#141519"/>
</svg>
