<svg width="14" height="13" viewBox="0 0 14 13" fill="none" xmlns="http://www.w3.org/2000/svg">
<path d="M4.36045 3.69337L5.85732 2.1965V8.44431C5.85732 8.83479 6.11765 9.09512 6.50813 9.09512C6.89862 9.09512 7.15895 8.83479 7.15895 8.44431V2.1965L8.65582 3.69337C8.91614 3.95369 9.30663 3.95369 9.56696 3.69337C9.82728 3.43304 9.82728 3.04255 9.56696 2.78223L6.9637 0.178974C6.89862 0.113892 6.83354 0.048811 6.76846 0.048811C6.6383 -0.0162703 6.44305 -0.0162703 6.24781 0.048811C6.18273 0.048811 6.11765 0.113892 6.05257 0.178974L3.44931 2.78223C3.18899 3.04255 3.18899 3.43304 3.44931 3.69337C3.70964 3.95369 4.10012 3.95369 4.36045 3.69337ZM12.3655 7.79349C11.975 7.79349 11.7146 8.05382 11.7146 8.44431V11.0476C11.7146 11.438 11.4543 11.6984 11.0638 11.6984H1.95244C1.56195 11.6984 1.30163 11.438 1.30163 11.0476V8.44431C1.30163 8.05382 1.0413 7.79349 0.650813 7.79349C0.260325 7.79349 0 8.05382 0 8.44431V11.0476C0 12.1539 0.846057 13 1.95244 13H11.0638C12.1702 13 13.0163 12.1539 13.0163 11.0476V8.44431C13.0163 8.05382 12.7559 7.79349 12.3655 7.79349Z" fill="#141519"/>
</svg>
