<svg width="36" height="36" viewBox="0 0 36 36" fill="none" xmlns="http://www.w3.org/2000/svg">
<rect width="36" height="36" rx="18" fill="#E2E2E2"/>
<path d="M18.1653 18.3648C20.7738 18.3648 22.8951 15.5966 22.8951 12.9886C22.8951 10.3804 20.7738 8.25818 18.1653 8.25818C15.5573 8.25818 13.4355 10.3802 13.4355 12.9884C13.4358 15.5966 15.5575 18.3648 18.1653 18.3648Z" fill="#A9A9A9"/>
<path d="M21.7164 18.4131C20.7988 19.1121 19.6542 19.5282 18.4144 19.5282H17.9165C16.6766 19.5282 15.5319 19.1121 14.6144 18.4131C11.6187 18.8974 9.33105 21.4941 9.33105 24.6262C9.33105 26.3469 13.2863 27.7419 18.1654 27.7419C23.0446 27.7419 26.9998 26.3469 26.9998 24.6262C26.9998 21.4941 24.712 18.8974 21.7164 18.4131Z" fill="#A9A9A9"/>
</svg>
