<svg width="14" height="14" viewBox="0 0 14 14" fill="none" xmlns="http://www.w3.org/2000/svg">
<path d="M6.06063 5.59354L5.58404 7.72037C5.56421 7.81603 5.56848 7.91512 5.59646 8.00872C5.62444 8.10232 5.67526 8.1875 5.74434 8.25657C5.81342 8.32565 5.89859 8.37647 5.99219 8.40445C6.0858 8.43244 6.18489 8.4367 6.28054 8.41687L8.40738 7.94029C8.51515 7.91617 8.61387 7.86196 8.69204 7.78395L13.4643 3.01112C13.7992 2.68051 13.9912 2.23181 13.9992 1.76127C14.0072 1.29072 13.8304 0.835793 13.5069 0.494038C13.1654 0.169618 12.7102 -0.00770778 12.2393 0.000257167C11.7684 0.00822211 11.3195 0.200841 10.9892 0.536621L6.21754 5.3077C6.13913 5.38613 6.0847 5.48528 6.06063 5.59354ZM7.16196 6.01412L11.8146 1.36145C11.9353 1.23778 12.0992 1.16565 12.272 1.1602C12.4236 1.15747 12.5703 1.21446 12.6803 1.31887C12.733 1.37265 12.7742 1.43658 12.8013 1.50678C12.8285 1.57698 12.8411 1.65198 12.8384 1.7272C12.8328 1.89978 12.7609 2.06357 12.6377 2.18454L7.98504 6.8372L6.92221 7.07579L7.16196 6.01412Z" fill="#63513D"/>
<path d="M2.91667 13.9993H8.75C9.52326 13.9983 10.2646 13.6908 10.8114 13.144C11.3582 12.5972 11.6657 11.8559 11.6667 11.0826V7.8626C11.6667 7.70789 11.6052 7.55952 11.4958 7.45012C11.3864 7.34073 11.238 7.27927 11.0833 7.27927C10.9286 7.27927 10.7803 7.34073 10.6709 7.45012C10.5615 7.55952 10.5 7.70789 10.5 7.8626V11.0826C10.5 11.5467 10.3156 11.9918 9.98744 12.32C9.65925 12.6482 9.21413 12.8326 8.75 12.8326H2.91667C2.45254 12.8326 2.00742 12.6482 1.67923 12.32C1.35104 11.9918 1.16667 11.5467 1.16667 11.0826V4.66593C1.16667 4.20181 1.35104 3.75669 1.67923 3.4285C2.00742 3.10031 2.45254 2.91593 2.91667 2.91593H6.72C6.87471 2.91593 7.02308 2.85448 7.13248 2.74508C7.24188 2.63568 7.30333 2.48731 7.30333 2.3326C7.30333 2.17789 7.24188 2.02952 7.13248 1.92012C7.02308 1.81073 6.87471 1.74927 6.72 1.74927H2.91667C2.1434 1.75019 1.40208 2.05778 0.855295 2.60456C0.308515 3.15134 0.00092625 3.89267 0 4.66593L0 11.0826C0.00092625 11.8559 0.308515 12.5972 0.855295 13.144C1.40208 13.6908 2.1434 13.9983 2.91667 13.9993Z" fill="#63513D"/>
</svg>
