<svg width="137" height="30" viewBox="0 0 137 30" fill="none" xmlns="http://www.w3.org/2000/svg">
<path fill-rule="evenodd" clip-rule="evenodd" d="M16.9617 4.47946C15.8763 -1.48577 21.8597 -1.50053 20.7791 4.47946L20.7811 4.48141H28.2782C28.4021 4.48279 29.9049 5.18778 30.1424 5.34176C31.7164 6.36494 32.3561 7.96543 32.5135 9.78708C32.8086 13.2157 32.9705 22.9143 32.4393 26.0888C32.1113 28.0499 30.7978 29.385 28.8367 29.5752C22.4715 30.1933 15.1175 29.081 8.64241 29.5664C6.62231 29.3352 5.45651 27.5252 5.24007 25.6084C4.84492 22.1091 4.84828 12.7613 5.27132 9.28024C5.4632 7.69963 6.25361 6.21702 7.6014 5.33981C7.84185 5.1836 9.34601 4.47946 9.46565 4.47946H16.9617ZM0.204912 13.2129C0.760561 11.9573 2.75924 12.479 3.87776 12.3877V23.8379C2.66602 23.7919 0.656988 24.2312 0.181475 22.7636C-0.0677217 21.9962 -0.0606209 13.8164 0.204912 13.2129ZM33.866 12.3877C34.9843 12.4778 36.985 11.9552 37.5408 13.2129C37.8063 13.8187 37.8125 21.9965 37.5633 22.7636C37.0862 24.231 35.0798 23.7921 33.868 23.8379H33.866V12.3877ZM25.6658 19.0429C28.4449 17.4655 26.733 13.2728 23.7127 13.8007C19.5546 14.5289 21.724 21.2795 25.6658 19.0429ZM13.8026 19.4707C17.659 19.0885 16.7372 12.932 12.7987 13.8027C9.57377 14.5163 10.2724 19.8199 13.8026 19.4707Z" fill="#63513D"/>
<path d="M56.4451 7.38379H59.1251V21.8838H55.5451L49.1651 11.3238V21.8838H46.4451V7.38379H50.0251L56.4451 18.0438V7.38379ZM65.5593 19.4438H72.7193V21.8838H62.5193V7.38379H72.5393V9.82379H65.5593V13.3238H71.6793V15.8038H65.5593V19.4438ZM80.5146 22.2038C78.008 22.2038 75.9146 21.3638 74.2346 19.6838L76.0346 17.6438C76.6346 18.3105 77.3413 18.8371 78.1546 19.2238C78.9813 19.6105 79.7746 19.8038 80.5346 19.8038C81.3213 19.8038 81.9546 19.6505 82.4346 19.3438C82.928 19.0371 83.1746 18.6171 83.1746 18.0838C83.1746 17.6705 82.948 17.3171 82.4946 17.0238C82.0546 16.7171 81.228 16.3638 80.0146 15.9638C78.8013 15.5638 77.8413 15.1705 77.1346 14.7838C76.428 14.3838 75.908 13.9238 75.5746 13.4038C75.2413 12.8705 75.0746 12.2171 75.0746 11.4438C75.0746 10.5771 75.3013 9.81712 75.7546 9.16379C76.2213 8.49712 76.8613 7.98379 77.6746 7.62379C78.5013 7.25045 79.4346 7.06379 80.4746 7.06379C81.448 7.06379 82.4013 7.23045 83.3346 7.56379C84.268 7.89712 85.1346 8.40379 85.9346 9.08379L84.1546 11.1038C83.6613 10.5838 83.0813 10.1838 82.4146 9.90379C81.7613 9.61045 81.1346 9.46379 80.5346 9.46379C79.828 9.46379 79.248 9.61712 78.7946 9.92379C78.3413 10.2171 78.1146 10.6038 78.1146 11.0838C78.1146 11.3771 78.2013 11.6305 78.3746 11.8438C78.548 12.0438 78.8546 12.2438 79.2946 12.4438C79.7346 12.6438 80.388 12.8771 81.2546 13.1438C82.4946 13.5171 83.4746 13.9171 84.1946 14.3438C84.9146 14.7571 85.4346 15.2305 85.7546 15.7638C86.0746 16.2971 86.2346 16.9371 86.2346 17.6838C86.2346 18.5638 85.988 19.3505 85.4946 20.0438C85.0013 20.7238 84.3213 21.2571 83.4546 21.6438C82.588 22.0171 81.608 22.2038 80.5146 22.2038ZM95.1875 22.2038C93.7608 22.2038 92.5075 21.8905 91.4275 21.2638C90.3475 20.6238 89.5141 19.7305 88.9275 18.5838C88.3408 17.4371 88.0475 16.1238 88.0475 14.6438C88.0475 13.1638 88.3408 11.8505 88.9275 10.7038C89.5141 9.55712 90.3408 8.66379 91.4075 8.02379C92.4875 7.38379 93.7341 7.06379 95.1475 7.06379C96.3875 7.06379 97.5141 7.30379 98.5275 7.78379C99.5408 8.25046 100.347 8.90379 100.947 9.74379L99.0075 11.4638C98.0475 10.1705 96.8275 9.52379 95.3475 9.52379C94.4808 9.52379 93.7275 9.73712 93.0875 10.1638C92.4608 10.5771 91.9741 11.1705 91.6275 11.9438C91.2941 12.7038 91.1275 13.5838 91.1275 14.5838C91.1275 15.6105 91.3075 16.5171 91.6675 17.3038C92.0408 18.0771 92.5475 18.6771 93.1875 19.1038C93.8275 19.5305 94.5541 19.7438 95.3675 19.7438C96.0475 19.7438 96.7008 19.5905 97.3275 19.2838C97.9541 18.9638 98.5341 18.4971 99.0675 17.8838L101.007 19.4638C100.421 20.3438 99.6141 21.0238 98.5875 21.5038C97.5741 21.9705 96.4408 22.2038 95.1875 22.2038ZM109.168 22.2038C107.768 22.2038 106.541 21.8971 105.488 21.2838C104.448 20.6571 103.641 19.7705 103.068 18.6238C102.494 17.4771 102.208 16.1438 102.208 14.6238C102.208 13.1171 102.494 11.7971 103.068 10.6638C103.641 9.51712 104.448 8.63046 105.488 8.00379C106.541 7.37712 107.768 7.06379 109.168 7.06379C110.568 7.06379 111.794 7.37712 112.848 8.00379C113.914 8.61712 114.734 9.49712 115.308 10.6438C115.881 11.7771 116.168 13.1038 116.168 14.6238C116.168 16.1438 115.874 17.4771 115.288 18.6238C114.714 19.7705 113.901 20.6571 112.848 21.2838C111.794 21.8971 110.568 22.2038 109.168 22.2038ZM109.168 19.7838C109.954 19.7838 110.641 19.5705 111.228 19.1438C111.828 18.7171 112.288 18.1171 112.608 17.3438C112.928 16.5571 113.088 15.6505 113.088 14.6238C113.088 13.5838 112.928 12.6771 112.608 11.9038C112.288 11.1305 111.828 10.5371 111.228 10.1238C110.641 9.69712 109.954 9.48379 109.168 9.48379C108.381 9.48379 107.694 9.69046 107.108 10.1038C106.534 10.5171 106.088 11.1105 105.768 11.8838C105.448 12.6571 105.288 13.5705 105.288 14.6238C105.288 15.6638 105.441 16.5771 105.748 17.3638C106.068 18.1371 106.521 18.7371 107.108 19.1638C107.694 19.5771 108.381 19.7838 109.168 19.7838ZM130.469 7.38379H134.769V21.8838H131.869V10.4238L128.069 21.8838H125.349L121.529 10.3638V21.8838H118.769V7.38379H123.069L126.689 18.4238L130.469 7.38379Z" fill="#141519"/>
</svg>
