<svg width="14" height="14" viewBox="0 0 14 14" fill="none" xmlns="http://www.w3.org/2000/svg">
<path d="M6.28164 0C2.8199 0 0 2.8199 0 6.28165C0 9.74337 2.8199 12.5688 6.28164 12.5688C7.76025 12.5688 9.12012 12.0506 10.1949 11.1902L12.8114 13.8054C12.9435 13.932 13.1198 14.0018 13.3027 14C13.4856 13.9981 13.6605 13.9247 13.79 13.7954C13.9194 13.6662 13.9931 13.4914 13.9952 13.3085C13.9973 13.1256 13.9277 12.9492 13.8013 12.8169L11.1848 10.2004C12.0458 9.12398 12.5646 7.76197 12.5646 6.28165C12.5646 2.8199 9.74338 0 6.28164 0ZM6.28164 1.39624C8.9888 1.39624 11.1671 3.57449 11.1671 6.28165C11.1671 8.98881 8.9888 11.1725 6.28164 11.1725C3.57448 11.1725 1.39622 8.98881 1.39622 6.28165C1.39622 3.57449 3.57448 1.39624 6.28164 1.39624Z" fill="#A9A9A9"/>
</svg>
