<svg width="12" height="14" viewBox="0 0 12 14" fill="none" xmlns="http://www.w3.org/2000/svg">
<path d="M8.03365 6.49154C8.92946 5.83822 9.51281 4.78089 9.51281 3.58974C9.51281 1.61036 7.90245 0 5.92307 0C3.94368 0 2.33332 1.61036 2.33332 3.58974C2.33332 4.78089 2.91665 5.83822 3.81248 6.49154C1.58561 7.34371 0 9.5028 0 12.0256C0 13.1143 0.885691 14 1.97436 14H9.87178C10.9604 14 11.8461 13.1143 11.8461 12.0256C11.8461 9.5028 10.2605 7.34371 8.03365 6.49154ZM3.41026 3.58974C3.41026 2.20418 4.5375 1.07693 5.92307 1.07693C7.30863 1.07693 8.43587 2.20418 8.43587 3.58974C8.43587 4.9753 7.30863 6.10258 5.92307 6.10258C4.5375 6.10258 3.41026 4.9753 3.41026 3.58974ZM9.87178 12.9231H1.97436C1.47952 12.9231 1.07693 12.5205 1.07693 12.0256C1.07693 9.35342 3.25087 7.17946 5.92309 7.17946C8.59532 7.17946 10.7693 9.35339 10.7693 12.0256C10.7692 12.5205 10.3666 12.9231 9.87178 12.9231Z" fill="black"/>
</svg>
