<svg xmlns="http://www.w3.org/2000/svg" width="38" height="30" viewBox="0 0 38 30" fill="none"><path fill-rule="evenodd" clip-rule="evenodd" d="M16.9617 4.47946C15.8763 -1.48577 21.8597 -1.50053 20.7791 4.47946L20.7811 4.48141H28.2782C28.4021 4.48279 29.9049 5.18778 30.1424 5.34176C31.7164 6.36494 32.3561 7.96543 32.5135 9.78708C32.8086 13.2157 32.9705 22.9143 32.4393 26.0888C32.1113 28.0499 30.7978 29.385 28.8367 29.5752C22.4715 30.1933 15.1175 29.081 8.64241 29.5664C6.62231 29.3352 5.45651 27.5252 5.24007 25.6084C4.84492 22.1091 4.84828 12.7613 5.27132 9.28024C5.4632 7.69963 6.25361 6.21702 7.6014 5.33981C7.84185 5.1836 9.34601 4.47946 9.46565 4.47946H16.9617ZM0.204912 13.2129C0.760561 11.9573 2.75924 12.479 3.87776 12.3877V23.8379C2.66602 23.7919 0.656988 24.2312 0.181475 22.7636C-0.0677217 21.9962 -0.0606209 13.8164 0.204912 13.2129ZM33.866 12.3877C34.9843 12.4778 36.985 11.9552 37.5408 13.2129C37.8063 13.8187 37.8125 21.9965 37.5633 22.7636C37.0862 24.231 35.0798 23.7921 33.868 23.8379H33.866V12.3877ZM25.6658 19.0429C28.4449 17.4655 26.733 13.2728 23.7127 13.8007C19.5546 14.5289 21.724 21.2795 25.6658 19.0429ZM13.8026 19.4707C17.659 19.0885 16.7372 12.932 12.7987 13.8027C9.57377 14.5163 10.2724 19.8199 13.8026 19.4707Z" fill="#63513D"></path><style>@media (prefers-color-scheme: light) { :root { filter: contrast(1) brightness(1); } }
@media (prefers-color-scheme: dark) { :root { filter: none; } }
</style></svg>